<?xml version="1.0" standalone="no"?>
<!DOCTYPE svg PUBLIC "-//W3C//DTD SVG 20010904//EN"
 "http://www.w3.org/TR/2001/REC-SVG-20010904/DTD/svg10.dtd">
<svg version="1.0" xmlns="http://www.w3.org/2000/svg"
 width="700.000000pt" height="700.000000pt" viewBox="0 0 700.000000 700.000000"
 preserveAspectRatio="xMidYMid meet">
<metadata>
Created by potrace 1.11, written by Peter Selinger 2001-2013
</metadata>
<g transform="translate(0.000000,700.000000) scale(0.100000,-0.100000)"
fill="#000000" stroke="none">
<path d="M2140 5806 c-685 -388 -1244 -708 -1243 -713 1 -4 199 -122 439 -260
l437 -253 121 67 c67 36 209 115 316 173 716 393 1166 642 1173 649 4 4 6 240
5 524 l-3 517 -1245 -704z"/>
<path d="M3602 5989 l3 -522 335 -184 c184 -102 427 -235 540 -298 113 -62
325 -178 471 -259 l266 -146 437 253 c240 138 438 256 439 260 1 6 -1980 1134
-2421 1378 l-72 40 2 -522z"/>
<path d="M2751 4880 c-409 -225 -748 -413 -753 -418 -6 -6 22 -27 69 -54 43
-24 377 -217 743 -428 366 -212 674 -385 685 -385 11 0 354 193 763 429 592
342 740 432 730 441 -9 8 -1314 728 -1488 821 -3 1 -340 -181 -749 -406z"/>
<path d="M780 3465 l0 -1446 28 15 c15 9 216 125 447 259 l420 243 0 929 0
929 -420 244 c-231 133 -432 249 -447 258 l-28 15 0 -1446z"/>
<path d="M5760 4651 l-445 -257 0 -929 0 -929 445 -257 445 -257 3 725 c1 398
1 1048 0 1443 l-3 718 -445 -257z"/>
<path d="M1886 4263 c-3 -3 -6 -370 -6 -813 0 -652 3 -810 13 -818 14 -12
1485 -822 1493 -822 2 0 4 359 4 798 l0 797 -227 132 c-126 72 -455 262 -732
423 -590 340 -537 311 -545 303z"/>
<path d="M4715 4049 c-209 -121 -545 -315 -747 -431 l-368 -212 0 -798 c0
-439 2 -798 4 -798 8 0 1478 809 1493 821 11 9 13 159 13 820 0 444 -4 810 -8
813 -4 2 -178 -94 -387 -215z"/>
<path d="M1403 2137 c-337 -195 -449 -265 -440 -273 7 -6 536 -307 1177 -669
641 -362 1184 -669 1208 -682 l42 -25 0 540 0 540 -752 413 c-414 228 -759
415 -767 416 -9 1 -219 -116 -468 -260z"/>
<path d="M4353 1983 l-753 -415 0 -540 0 -540 43 25 c23 13 566 320 1207 682
641 362 1170 663 1177 669 9 8 -101 77 -438 271 -248 143 -458 261 -467 262
-9 1 -356 -186 -769 -414z"/>
</g>
</svg>
